<?xml version="1.0" standalone="no"?>
<!DOCTYPE svg PUBLIC "-//W3C//DTD SVG 20010904//EN"
 "http://www.w3.org/TR/2001/REC-SVG-20010904/DTD/svg10.dtd">
<svg version="1.0" xmlns="http://www.w3.org/2000/svg"
 width="415.000000pt" height="118.000000pt" viewBox="0 0 415.000000 118.000000"
 preserveAspectRatio="xMidYMid meet">

<g transform="translate(0.000000,118.000000) scale(0.100000,-0.100000)"
fill="#000000" stroke="none">
<path d="M351 1165 c-119 -34 -237 -113 -302 -203 -33 -46 -39 -63 -39 -105 0
-55 22 -110 54 -132 11 -8 23 -15 27 -15 4 0 5 28 2 63 -4 58 -2 66 33 124 20
34 61 85 91 115 l55 53 -7 -35 c-7 -34 -80 -246 -145 -422 -38 -101 -35 -129
13 -158 43 -26 67 -26 67 2 0 11 21 83 47 160 46 132 49 138 75 138 46 0 131
21 183 46 72 33 129 86 159 146 47 95 27 167 -60 208 -61 30 -176 36 -253 15z
m181 -45 c78 -61 54 -191 -47 -262 -39 -27 -148 -58 -161 -46 -3 4 13 61 36
127 l41 121 -20 29 -21 29 27 10 c48 18 118 14 145 -8z"/>
<path d="M747 1133 c-3 -10 -8 -36 -12 -58 -11 -70 -54 -212 -121 -398 -68
-187 -72 -217 -33 -237 39 -21 70 -9 88 36 19 48 179 284 192 284 5 0 -3 -26
-17 -57 -46 -100 -64 -152 -64 -182 0 -56 71 -110 126 -97 15 4 58 37 96 73
60 59 68 64 68 42 0 -36 36 -87 74 -105 47 -23 94 -12 147 35 24 21 61 43 81
50 21 7 60 33 88 58 27 24 50 43 50 40 0 -2 -7 -24 -15 -47 -30 -84 -12 -125
58 -137 45 -7 90 20 147 85 37 43 40 45 40 22 0 -37 35 -88 74 -106 47 -23 94
-12 147 35 24 21 60 43 81 50 20 7 58 31 84 54 32 28 45 35 40 22 -5 -11 -10
-38 -13 -61 -5 -36 -2 -43 31 -72 41 -36 82 -50 105 -35 9 5 35 33 58 62 24
28 43 50 43 47 0 -3 -23 -59 -51 -125 -50 -119 -51 -121 -119 -171 -37 -28
-85 -69 -105 -91 -31 -35 -36 -46 -31 -73 8 -41 40 -66 84 -66 56 0 133 87
206 231 37 73 77 134 111 171 59 64 161 193 220 278 21 30 39 57 41 59 8 9 34
-23 34 -43 0 -11 -14 -50 -31 -86 -67 -140 -70 -169 -19 -195 53 -28 90 -20
141 31 l46 45 16 -24 c16 -26 73 -57 103 -57 9 0 37 20 61 45 40 43 43 44 43
20 0 -47 84 -79 137 -51 17 8 51 38 76 66 l46 51 -6 -35 c-4 -29 -1 -39 21
-59 44 -41 62 -40 85 4 21 40 171 268 171 259 0 -3 -11 -32 -25 -65 -33 -81
-33 -127 1 -154 32 -25 60 -27 68 -5 7 19 159 215 163 210 2 -1 -13 -41 -32
-89 -43 -107 -45 -148 -9 -176 43 -34 78 -27 135 26 71 66 184 236 172 257 -8
14 -20 2 -65 -66 -69 -104 -135 -188 -148 -188 -17 0 -11 24 45 178 30 83 55
156 55 162 0 20 -49 60 -73 60 -18 0 -39 -21 -89 -87 -36 -49 -78 -107 -93
-130 -15 -24 -29 -43 -31 -43 -2 0 8 30 23 68 49 129 49 133 14 164 -17 15
-38 28 -45 28 -8 0 -53 -57 -100 -127 -47 -70 -86 -125 -86 -122 0 3 14 42 30
87 17 46 30 89 30 98 0 20 -48 64 -70 64 -11 0 -22 -18 -34 -58 -32 -102 -94
-199 -190 -300 -72 -75 -72 -62 -6 120 28 75 50 144 50 153 0 20 -48 65 -69
65 -9 0 -22 -14 -28 -31 l-12 -31 -29 24 c-41 34 -87 51 -117 44 -32 -8 -83
-78 -136 -186 -51 -103 -125 -210 -145 -210 -7 0 -14 2 -14 4 0 2 18 55 40
116 22 61 40 122 40 135 0 21 -44 70 -86 93 -15 8 -14 15 10 75 30 75 34 147
10 171 -8 9 -20 16 -25 16 -24 0 -90 -43 -114 -74 -54 -71 -52 -142 5 -201
l30 -31 -95 -124 c-110 -145 -160 -204 -150 -175 59 160 105 305 105 327 0 17
-10 34 -26 47 -33 26 -64 27 -64 4 0 -39 -16 -46 -44 -20 -15 14 -40 31 -57
38 -51 20 -78 3 -137 -86 -57 -86 -134 -170 -182 -198 -35 -21 -36 -18 -10 32
10 21 24 58 30 83 23 89 -31 188 -102 188 -63 0 -106 -40 -198 -180 -88 -134
-178 -235 -196 -218 -6 6 135 412 150 434 9 12 31 16 87 17 40 1 80 0 88 -3
23 -9 23 17 0 39 -18 17 -36 21 -87 21 l-64 0 6 28 c4 15 9 35 12 45 9 30 -90
106 -111 85 -3 -2 -11 -39 -19 -81 -8 -43 -18 -82 -21 -87 -9 -14 -73 -12
-118 4 -44 16 -57 4 -38 -32 21 -40 42 -52 87 -52 24 0 44 -1 44 -3 0 -11 -50
-148 -63 -173 -23 -45 -177 -185 -177 -161 0 3 11 29 24 58 36 80 41 122 21
174 -39 104 -127 113 -211 23 -18 -18 -40 -49 -49 -68 -54 -107 -245 -312
-245 -263 0 4 21 67 46 140 34 100 44 142 40 167 -7 38 -30 62 -68 71 -22 6
-33 0 -66 -34 -22 -23 -59 -70 -82 -106 -24 -36 -44 -64 -46 -63 -1 2 29 95
67 207 l69 204 -22 25 c-23 24 -69 52 -87 52 -5 0 -12 -8 -14 -17z m2063 -145
c0 -24 -11 -65 -24 -93 l-24 -50 -11 28 c-12 32 -1 94 25 135 22 34 34 27 34
-20z m-1475 -223 c0 -55 -6 -83 -29 -132 -30 -65 -51 -78 -76 -48 -10 12 -6
24 20 65 37 58 34 75 -15 95 -24 11 -33 20 -28 30 9 26 76 66 103 63 24 -3 25
-6 25 -73z m669 0 c0 -54 -7 -84 -29 -132 -29 -65 -50 -78 -75 -48 -10 12 -6
24 20 65 37 58 34 75 -15 95 -24 11 -33 20 -28 30 9 26 76 66 103 63 24 -3 25
-6 24 -73z m450 2 c16 -11 12 -21 -49 -122 -36 -61 -82 -126 -101 -145 l-36
-35 5 40 c6 53 61 183 98 235 30 41 53 49 83 27z m774 -5 c15 -10 -16 -73 -86
-172 -57 -82 -82 -110 -98 -110 -27 0 45 181 103 258 24 32 54 41 81 24z
m-2015 -226 c9 -7 17 -17 17 -21 0 -12 -33 -34 -52 -35 -21 0 -22 10 -6 45 13
29 16 29 41 11z m670 0 c9 -7 17 -17 17 -21 0 -12 -33 -34 -52 -35 -21 0 -22
10 -6 45 13 29 16 29 41 11z m338 -369 c-26 -43 -67 -87 -81 -87 -26 0 -5 42
42 83 29 25 55 44 57 42 2 -2 -6 -19 -18 -38z"/>
</g>
</svg>
